<svg width="53" height="52" viewBox="0 0 53 52" fill="none" xmlns="http://www.w3.org/2000/svg">
<path d="M20.1363 17.2833C15.2845 16.7827 10.2018 18.3229 6.50519 22.0195C4.15633 24.2914 2.69311 27.1023 2 30.0287C3.34771 31.2609 4.73392 32.5316 6.08163 33.8023L20.1363 17.2833Z" stroke="#FF7A00" stroke-width="3" stroke-linejoin="round"/>
<path d="M35.3466 31.6074L18.25 45.7391C19.7132 47.2408 21.1379 48.7426 22.5242 50.2443C25.4891 49.5897 28.3386 48.1265 30.6489 45.8161C34.5765 41.9655 36.1553 36.6517 35.3466 31.6074Z" stroke="#FF7A00" stroke-width="3" stroke-linejoin="round"/>
<path d="M10.6992 28.9129L23.1751 41.2348L41.504 26.0634C48.7816 20.0565 51.7851 10.8536 50.2063 2.26676C41.4655 0.688018 32.1855 3.65297 26.0631 10.8151L10.6992 28.9129Z" stroke="#FF7A00" stroke-width="3" stroke-linejoin="round"/>
<path d="M12.6663 44.9309C11.0876 46.5096 3.07832 48.7429 3.07832 48.7429C2.9628 48.8585 5.31167 40.8492 6.92892 39.2705C8.50766 37.6917 11.0876 37.6917 12.7048 39.2705C14.245 40.8492 14.245 43.3906 12.6663 44.9309Z" stroke="#FF7A00" stroke-width="3" stroke-linejoin="round"/>
<path d="M44.3948 8.00371C46.3586 9.929 48.0528 11.9698 49.5161 14.0876C50.6712 10.2756 50.9408 6.19393 50.2092 2.26632C46.2045 1.53471 42.0844 1.76575 38.1953 2.92093C40.3516 4.38415 42.431 6.07841 44.3948 8.00371Z" stroke="#FF7A00" stroke-width="3" stroke-linejoin="round"/>
<path d="M41.2378 19.0553C39.0045 21.2501 35.3849 21.2501 33.1516 19.0553C30.9182 16.8604 30.9182 13.2794 33.1516 11.046C35.3849 8.85119 39.0045 8.85119 41.2378 11.046C43.4712 13.2794 43.4712 16.8604 41.2378 19.0553Z" stroke="#FF7A00" stroke-width="3" stroke-linejoin="round"/>
<path d="M13.8203 24.4072L27.7595 38.1538" stroke="#FF7A00" stroke-width="3" stroke-linejoin="round"/>
</svg>
