<svg width="211" height="59" viewBox="0 0 211 59" fill="none" xmlns="http://www.w3.org/2000/svg">
<path d="M84.8545 30.581H79.5383V26.8408H83.7724C85.0113 26.8408 86.0149 26.6527 86.7833 26.2763C87.5518 25.8842 88.1163 25.3354 88.477 24.6297C88.8377 23.924 89.018 23.0928 89.018 22.1362C89.018 21.3521 88.8142 20.6308 88.4064 19.9721C88.0144 19.3135 87.4028 18.7881 86.5716 18.3961C85.7405 17.9884 84.682 17.7845 83.396 17.7845C82.4238 17.7845 81.5377 17.957 80.738 18.302C79.9382 18.647 79.3031 19.1331 78.8326 19.7604C78.3621 20.372 78.1269 21.1169 78.1269 21.9951H71.0935C71.0935 20.4896 71.415 19.141 72.058 17.9492C72.7166 16.7416 73.6105 15.7223 74.7396 14.8912C75.8844 14.0444 77.2017 13.4014 78.6915 12.9623C80.1812 12.5232 81.7494 12.3037 83.396 12.3037C85.3249 12.3037 87.0656 12.5154 88.6181 12.9388C90.1707 13.3465 91.5036 13.9581 92.617 14.7736C93.7305 15.589 94.5851 16.6005 95.181 17.808C95.777 19.0155 96.0749 20.4191 96.0749 22.0186C96.0749 23.1948 95.8083 24.3004 95.2751 25.3354C94.7419 26.3704 93.9814 27.2799 92.9934 28.064C92.0054 28.8481 90.8215 29.4676 89.4414 29.9223C88.0614 30.3614 86.5324 30.581 84.8545 30.581ZM79.5383 28.5345H84.8545C86.7206 28.5345 88.3751 28.7305 89.8178 29.1226C91.2762 29.5146 92.5073 30.087 93.5109 30.8397C94.5302 31.5925 95.2987 32.5255 95.8162 33.639C96.3493 34.7367 96.6159 35.9991 96.6159 37.4262C96.6159 39.0257 96.2866 40.4449 95.628 41.6838C94.985 42.9227 94.0676 43.9734 92.8758 44.8359C91.6996 45.6984 90.3039 46.3492 88.6887 46.7883C87.0891 47.2274 85.3249 47.4469 83.396 47.4469C81.8592 47.4469 80.3302 47.2588 78.8091 46.8824C77.2879 46.4903 75.9079 45.8944 74.669 45.0946C73.4302 44.2949 72.4422 43.2677 71.7051 42.0131C70.9681 40.7586 70.5996 39.2531 70.5996 37.4967H77.68C77.68 38.3279 77.923 39.0884 78.4092 39.7785C78.8953 40.4528 79.5696 40.9938 80.4322 41.4015C81.2947 41.7936 82.2826 41.9896 83.396 41.9896C84.6976 41.9896 85.8032 41.7857 86.7128 41.378C87.638 40.9703 88.3359 40.4136 88.8063 39.7079C89.2925 38.9865 89.5355 38.1946 89.5355 37.3321C89.5355 36.4068 89.4101 35.6227 89.1592 34.9798C88.9083 34.3368 88.5397 33.8115 88.0536 33.4037C87.5674 32.9803 86.9637 32.6745 86.2423 32.4863C85.5366 32.2982 84.7133 32.2041 83.7724 32.2041H79.5383V28.5345ZM112.447 32.8862L99.3916 12.7506H108.166L115.834 26.6291H121.785L120.868 32.8862H112.447ZM115.787 31.8042L107.672 47H98.8741L110.095 27.7112L115.787 31.8042ZM126.396 12.7506V47H119.386V12.7506H126.396ZM146.108 12.7506L133.241 32.8862H124.867L123.95 26.6291H129.854L137.334 12.7506H146.108ZM137.828 47L129.901 31.8042L135.617 27.7112L146.626 47H137.828ZM172.125 12.7506V18.2785H156.717V47H149.684V12.7506H172.125ZM154.294 25.2413H162.292C164.989 25.2413 167.31 25.6882 169.255 26.5821C171.199 27.476 172.697 28.7305 173.748 30.3458C174.798 31.961 175.324 33.8428 175.324 35.9913C175.324 37.6222 175.026 39.112 174.43 40.4606C173.834 41.7936 172.964 42.9541 171.819 43.942C170.69 44.9143 169.325 45.667 167.726 46.2002C166.126 46.7334 164.315 47 162.292 47H149.684V12.7506H156.764V41.4956H162.292C163.641 41.4956 164.754 41.2447 165.632 40.7429C166.51 40.2411 167.169 39.5746 167.608 38.7434C168.063 37.8966 168.29 36.9635 168.29 35.9442C168.29 34.9719 168.063 34.0937 167.608 33.3096C167.169 32.5099 166.51 31.8826 165.632 31.4278C164.754 30.973 163.641 30.7456 162.292 30.7456H154.294V25.2413ZM186.732 35.8972L200.493 12.7506H207.55V47H200.493V23.8534L186.732 47H179.675V12.7506H186.732V35.8972Z" fill="white"/>
<g opacity="0.6">
<path d="M28.4062 52.0147L55.5267 41.2983V45.8069L28.4062 56.5233V52.0147Z" fill="#7A8396"/>
<path d="M28.4037 52.0145L55.5242 41.2981L27.1205 33.9805L0 44.6969L28.4037 52.0145Z" fill="#9A9EB0"/>
<g style="mix-blend-mode:multiply">
<mask id="mask0_15_2" style="mask-type:alpha" maskUnits="userSpaceOnUse" x="0" y="33" width="56" height="20">
<path d="M28.4037 52.0145L55.5242 41.2981L27.1205 33.9805L0 44.6969L28.4037 52.0145Z" fill="#9A9EB0"/>
</mask>
<g mask="url(#mask0_15_2)">
<g style="mix-blend-mode:multiply" filter="url(#filter0_f_15_2)">
<path d="M28.2763 48.3384L49.8744 39.8065L27.2544 33.9805L5.65625 42.5124L28.2763 48.3384Z" fill="#9A9EB0"/>
</g>
</g>
</g>
<path d="M28.4037 52.0149L0 44.6973V49.2058L28.4037 56.5235V52.0149Z" fill="#BCC3D3"/>
</g>
<g opacity="0.7">
<path d="M28.4062 43.9308L55.5267 33.2144V37.7229L28.4062 48.4393V43.9308Z" fill="#7A8396"/>
<path d="M28.4037 43.9306L55.5242 33.2142L27.1205 25.8965L0 36.6129L28.4037 43.9306Z" fill="#9A9EB0"/>
<g style="mix-blend-mode:multiply">
<mask id="mask1_15_2" style="mask-type:alpha" maskUnits="userSpaceOnUse" x="0" y="25" width="56" height="19">
<path d="M28.4037 43.9306L55.5242 33.2142L27.1205 25.8965L0 36.6129L28.4037 43.9306Z" fill="#9A9EB0"/>
</mask>
<g mask="url(#mask1_15_2)">
<g style="mix-blend-mode:multiply" filter="url(#filter1_f_15_2)">
<path d="M28.2763 40.2544L49.8744 31.7225L27.2544 25.8965L5.65625 34.4284L28.2763 40.2544Z" fill="#9A9EB0"/>
</g>
</g>
</g>
<path d="M28.4037 43.931L0 36.6133V41.1218L28.4037 48.4395V43.931Z" fill="#BCC3D3"/>
</g>
<g opacity="0.8">
<path d="M28.4062 35.5475L55.5267 24.8311V29.3396L28.4062 40.056V35.5475Z" fill="#7A8396"/>
<path d="M28.4037 35.5473L55.5242 24.8309L27.1205 17.5132L0 28.2296L28.4037 35.5473Z" fill="#9A9EB0"/>
<g style="mix-blend-mode:multiply">
<mask id="mask2_15_2" style="mask-type:alpha" maskUnits="userSpaceOnUse" x="0" y="17" width="56" height="19">
<path d="M28.4037 35.5473L55.5242 24.8309L27.1205 17.5132L0 28.2296L28.4037 35.5473Z" fill="#9A9EB0"/>
</mask>
<g mask="url(#mask2_15_2)">
<g style="mix-blend-mode:multiply" filter="url(#filter2_f_15_2)">
<path d="M28.2763 31.8711L49.8744 23.3392L27.2544 17.5132L5.65625 26.0451L28.2763 31.8711Z" fill="#9A9EB0"/>
</g>
</g>
</g>
<path d="M28.4037 35.5477L0 28.23V32.7385L28.4037 40.0562V35.5477Z" fill="#BCC3D3"/>
</g>
<g opacity="0.9">
<path d="M28.4062 27.1661L55.5267 16.4497V20.9582L28.4062 31.6746V27.1661Z" fill="#7A8396"/>
<path d="M28.4037 27.1659L55.5242 16.4495L27.1205 9.13184L0 19.8482L28.4037 27.1659Z" fill="#9A9EB0"/>
<g style="mix-blend-mode:multiply">
<mask id="mask3_15_2" style="mask-type:alpha" maskUnits="userSpaceOnUse" x="0" y="9" width="56" height="19">
<path d="M28.4037 27.1659L55.5242 16.4495L27.1205 9.13184L0 19.8482L28.4037 27.1659Z" fill="#9A9EB0"/>
</mask>
<g mask="url(#mask3_15_2)">
<g style="mix-blend-mode:multiply" filter="url(#filter3_f_15_2)">
<path d="M28.2763 23.4897L49.8744 14.9578L27.2544 9.13184L5.65625 17.6637L28.2763 23.4897Z" fill="#9A9EB0"/>
</g>
</g>
</g>
<path d="M28.4037 27.1663L0 19.8486V24.3572L28.4037 31.6748V27.1663Z" fill="#BCC3D3"/>
</g>
<path d="M28.4062 18.7843L55.5267 8.06787V12.5764L28.4062 23.2928V18.7843Z" fill="#7A8396"/>
<path d="M28.4037 18.7841L55.5242 8.06768L27.1205 0.75L0 11.4664L28.4037 18.7841Z" fill="#9A9EB0"/>
<path d="M28.4037 18.7845L0 11.4668V15.9753L28.4037 23.293V18.7845Z" fill="#BCC3D3"/>
<defs>
<filter id="filter0_f_15_2" x="1.66564" y="29.9899" width="52.1994" height="22.3391" filterUnits="userSpaceOnUse" color-interpolation-filters="sRGB">
<feFlood flood-opacity="0" result="BackgroundImageFix"/>
<feBlend mode="normal" in="SourceGraphic" in2="BackgroundImageFix" result="shape"/>
<feGaussianBlur stdDeviation="1.99531" result="effect1_foregroundBlur_15_2"/>
</filter>
<filter id="filter1_f_15_2" x="1.66564" y="21.9059" width="52.1994" height="22.3391" filterUnits="userSpaceOnUse" color-interpolation-filters="sRGB">
<feFlood flood-opacity="0" result="BackgroundImageFix"/>
<feBlend mode="normal" in="SourceGraphic" in2="BackgroundImageFix" result="shape"/>
<feGaussianBlur stdDeviation="1.99531" result="effect1_foregroundBlur_15_2"/>
</filter>
<filter id="filter2_f_15_2" x="1.66564" y="13.5226" width="52.1994" height="22.3391" filterUnits="userSpaceOnUse" color-interpolation-filters="sRGB">
<feFlood flood-opacity="0" result="BackgroundImageFix"/>
<feBlend mode="normal" in="SourceGraphic" in2="BackgroundImageFix" result="shape"/>
<feGaussianBlur stdDeviation="1.99531" result="effect1_foregroundBlur_15_2"/>
</filter>
<filter id="filter3_f_15_2" x="1.66564" y="5.14122" width="52.1994" height="22.3391" filterUnits="userSpaceOnUse" color-interpolation-filters="sRGB">
<feFlood flood-opacity="0" result="BackgroundImageFix"/>
<feBlend mode="normal" in="SourceGraphic" in2="BackgroundImageFix" result="shape"/>
<feGaussianBlur stdDeviation="1.99531" result="effect1_foregroundBlur_15_2"/>
</filter>
</defs>
</svg>
